<svg xmlns="http://www.w3.org/2000/svg" viewBox="0 0 126 14.2"><defs><style>.cls-1{fill:#ef476f;}.cls-2{fill:#353c45;}</style></defs><title>Tradebrics_Logo_Web</title><g id="Layer_2" data-name="Layer 2"><g id="Layer_1-2" data-name="Layer 1"><path class="cls-1" d="M18.7,6.2h-.8A6.5,6.5,0,0,0,11.5.2a6.3,6.3,0,0,0-5.9,4A8.8,8.8,0,0,0,14,10.6a.9.9,0,0,1,.9.8.9.9,0,0,1-.9.9A10.6,10.6,0,0,1,3.8,4.4,4.8,4.8,0,0,0,0,9.2a4.9,4.9,0,0,0,4.9,4.9H17.3a7.2,7.2,0,0,0-7.2-7.2.9.9,0,0,1,0-1.8,9,9,0,0,1,9,9,4,4,0,0,0-.4-7.9Z"/><path class="cls-2" d="M92.2,11c0,2-1.5,3.2-4.5,3.2H82.3V2.3h5.1c2.6,0,4.1,1.1,4.1,3.1a2.8,2.8,0,0,1-1.8,2.7A2.8,2.8,0,0,1,92.2,11ZM83.5,3.3V7.6h3.8c1.9,0,3-.7,3-2.1s-1.1-2.2-3-2.2Zm7.4,7.6c0-1.5-1.1-2.2-3.2-2.2H83.5v4.4h4.2C89.8,13.1,90.9,12.5,90.9,10.9Z"/><path class="cls-2" d="M101.3,14.2l-2.7-3.8H94.4v3.8H93.2V2.3h4.4c3,0,4.9,1.5,4.9,4.1a3.8,3.8,0,0,1-2.7,3.7l2.9,4.1Zm-.1-7.8c0-1.9-1.2-3-3.6-3H94.4V9.3h3.2C100,9.3,101.2,8.2,101.2,6.4Z"/><path class="cls-2" d="M103.7,2.3h1.2V14.2h-1.2Z"/><path class="cls-2" d="M106.1,8.2a5.8,5.8,0,0,1,6.1-5.9A5.7,5.7,0,0,1,116.4,4l-.8.8a4.4,4.4,0,0,0-3.4-1.4,4.8,4.8,0,0,0-4.9,4.8,4.7,4.7,0,0,0,4.9,4.8,4.4,4.4,0,0,0,3.4-1.4l.8.8a6.1,6.1,0,0,1-10.3-4.2Z"/><path class="cls-2" d="M117.4,12.6l.4-.9a6.2,6.2,0,0,0,3.9,1.4c2.1,0,3.1-.9,3.1-2.1,0-3.2-7.1-1.2-7.1-5.5,0-1.7,1.3-3.2,4.2-3.2a6.9,6.9,0,0,1,3.6,1l-.4,1a6.2,6.2,0,0,0-3.2-.9c-2.1,0-3,.9-3,2.1,0,3.1,7.1,1.2,7.1,5.4,0,1.8-1.4,3.2-4.3,3.2A6,6,0,0,1,117.4,12.6Z"/><path class="cls-2" d="M41,2.3V5.4h-.8c-1.9,0-3.1,1-3.1,3.2v5.5H33.8V2.3H37V4A4.7,4.7,0,0,1,41,2.3Z"/><path class="cls-2" d="M53.1,7.4v6.7H50V12.5c-.6,1.1-1.8,1.6-3.5,1.6s-4.2-1.5-4.2-3.4,1.4-3.5,4.9-3.5h2.6c0-1.4-.9-2.2-2.6-2.2a5.9,5.9,0,0,0-3.3,1L42.7,3.7a8.6,8.6,0,0,1,4.9-1.4C51.1,2.3,53.1,4,53.1,7.4Zm-3.3,2.9V9.2H47.5c-1.5,0-2,.5-2,1.3s.7,1.4,1.9,1.4A2.4,2.4,0,0,0,49.8,10.3Z"/><path class="cls-2" d="M67.1,0V14.1H63.9V12.6a4.3,4.3,0,0,1-3.6,1.5,5.6,5.6,0,0,1-5.7-5.9,5.6,5.6,0,0,1,5.7-5.9,4.4,4.4,0,0,1,3.4,1.4V0ZM63.8,8.2A2.9,2.9,0,0,0,60.9,5,2.9,2.9,0,0,0,58,8.2a2.9,2.9,0,0,0,2.9,3.2A2.9,2.9,0,0,0,63.8,8.2Z"/><path class="cls-2" d="M80.5,9.1H71.9a2.9,2.9,0,0,0,3.2,2.3A3.6,3.6,0,0,0,78,10.3l1.8,1.9a6.2,6.2,0,0,1-4.7,1.9c-4,0-6.5-2.5-6.5-5.9a5.8,5.8,0,0,1,6-5.9,5.7,5.7,0,0,1,6,6C80.6,8.5,80.5,8.9,80.5,9.1ZM71.8,7.2h5.7a2.9,2.9,0,0,0-5.7,0Z"/><path class="cls-2" d="M32.3,13.4a4.3,4.3,0,0,1-2.7.7c-2.6,0-4.2-1.4-4.2-4.1V4.9H23.6V2.3h1.8V0h3.3V2.3h2.8V4.9H28.7V10c0,1,.5,1.5,1.4,1.5a2.5,2.5,0,0,0,1.3-.4Z"/></g></g></svg>